<svg xmlns="http://www.w3.org/2000/svg" viewBox="0 0 36 45" x="0px" y="0px"><title>Монтажная область 76</title><path d="M32.985,30.19566l.00261-.006c.00273-.01128.00057-.0224.00239-.03367a.42789.42789,0,0,0,.00681-.09636,86.70044,86.70044,0,0,1-.01918-.11l-1.23967-3.719a.43342.43342,0,0,0-.21155-.24787l-2.24538-1.1676V18.12409h2.04532a.42956.42956,0,0,0,.15386-.03l.009-.00174c.00885-.00359.01453-.01169.02308-.01585a.427.427,0,0,0,.10986-.0754.41907.41907,0,0,0,.03481-.038.42577.42577,0,0,0,.06367-.10672c.0045-.01056.01369-.01816.01736-.02913l1.23967-3.719a.43364.43364,0,0,0-.21156-.52208L17.27027,5.52828l-.01495-.004a.43128.43128,0,0,0-.11065-.03.42531.42531,0,0,0-.06379-.01286l-.01067-.00216H3.43389a.434.434,0,0,0-.41161.57111l1.23966,3.719a.43382.43382,0,0,0,.41161.2969H6.71888v7.80965H4.67355a.43382.43382,0,0,0-.41161.2969l-1.23966,3.719-.00189.01551c-.002.00666-.00644.01188-.0081.01869a.42649.42649,0,0,0-.00791.11161c.00023.00964-.00291.01937-.002.02894a.4318.4318,0,0,0,.04158.14928.4176.4176,0,0,0,.02349.03511.319.319,0,0,0,.11463.12378.41749.41749,0,0,0,.05179.03916l15.49583,8.05783a.43431.43431,0,0,0,.20005.049H32.566a.43211.43211,0,0,0,.14633-.02588c.00935-.00337.0171-.01044.02626-.01445a.43127.43127,0,0,0,.10207-.05962l.00711-.00416a.42712.42712,0,0,0,.06068-.07c.007-.00916.01619-.01612.02247-.02588A.432.432,0,0,0,32.985,30.19566Zm-1.1696-.98824L17.42609,21.725l-.84489-2.53563L28.647,25.46342h.00007l2.32339,1.20819ZM28.847,17.25608a.434.434,0,0,0-.434.434v6.67373L16.0306,17.92494a.42751.42751,0,0,0-.17883-.04381c-.00738-.00038-.01385-.00522-.02122-.00522H13.78522V10.06626h1.9391l13.827,7.18982Zm2.22843-.18553-6.13174-3.18844L16.35932,9.4182l.96179-2.88541L32.0373,14.18506ZM4.98619,18.74392H7.15288a.434.434,0,0,0,.434-.434V9.63225a.434.434,0,0,0-.434-.434H4.98619l-.95033-2.851H16.46824l-.95033,2.851h-2.1667a.434.434,0,0,0-.434.434v8.67767a.434.434,0,0,0,.434.434h2.1667l.95033,2.851H4.03586Zm.22245,3.719H16.96428L22.34144,25.259,30.791,29.65274H19.03564Z"/><text x="0" y="51" fill="#000000" font-size="5px" font-weight="bold" font-family="'Helvetica Neue', Helvetica, Arial-Unicode, Arial, Sans-serif">Created by Chintuza</text><text x="0" y="56" fill="#000000" font-size="5px" font-weight="bold" font-family="'Helvetica Neue', Helvetica, Arial-Unicode, Arial, Sans-serif">from the Noun Project</text></svg>