<svg xmlns="http://www.w3.org/2000/svg" viewBox="0 0 512 640" x="0px" y="0px"><title>Engineer &amp;amp; Construction</title><g><path d="M256.5,500.52H16.5a5,5,0,0,1-5-5V444.68a5,5,0,0,1,10,0v45.84h230V444.68a5,5,0,0,1,10,0v50.84A5,5,0,0,1,256.5,500.52Z"/><path d="M256.5,449.68a5,5,0,0,1-2.38-.6,136.91,136.91,0,0,1-39.38-17.23c-27-17.54-41.33-42.39-41.33-71.87,0-26.43,12.06-47.11,34.87-59.8,16.53-9.19,34.63-12,43.22-12.78v-41H21.5v40.94c8.22.71,27.1,3.35,44.31,12.86,23,12.69,35.1,33.37,35.1,59.8,0,29.49-14.37,54.34-41.55,71.87a138.14,138.14,0,0,1-39.6,17.23,5,5,0,0,1-7.38-4.4v-.18a5,5,0,0,1,3.95-4.89,128.18,128.18,0,0,0,37.85-16.32C78.55,407.48,90.91,386.18,90.91,360c0-22.9-10.07-40.07-29.94-51.05-16-8.86-33.86-11.13-41-11.71H16.5a5,5,0,0,1-5-5V241.38a5,5,0,0,1,5-5h240a5,5,0,0,1,5,5v50.84a5,5,0,0,1-5,5h-2.61c-65.39,5.19-70.48,49.34-70.48,62.76,0,26.3,12.37,47.66,36.77,63.48a125.93,125.93,0,0,0,37.37,16.15,5,5,0,0,1,3.95,4.89v.18A5,5,0,0,1,256.5,449.68Z"/><path d="M256.5,500.52a5,5,0,0,1-3.42-8.65L491.5,268.4V219.73a5,5,0,0,1,10,0v50.84a5,5,0,0,1-1.58,3.65l-240,225A5,5,0,0,1,256.5,500.52Z"/><path d="M256.5,449.68a5,5,0,0,1-3.42-8.65L486.67,222.09a136.88,136.88,0,0,1-30.52-13.8C429.73,192,415,168.66,413.53,140.77a5,5,0,0,1,10-.52c1.29,24.72,14,44.7,37.62,59.38a125.47,125.47,0,0,0,36.35,15,5,5,0,0,1,4,4.9v.18a5,5,0,0,1-1.58,3.65l-240,225A5,5,0,0,1,256.5,449.68Z"/><path d="M16.5,246.38a5,5,0,0,1-3.42-8.64l240-225a5,5,0,0,1,3.42-1.35h240a5,5,0,0,1,5,5V67.27a5,5,0,0,1-10,0V21.43h-233L19.92,245A4.94,4.94,0,0,1,16.5,246.38Z"/><path d="M256.5,246.38a5,5,0,0,1-3.42-8.64l240-225a5,5,0,1,1,6.84,7.3l-240,225A4.94,4.94,0,0,1,256.5,246.38Z"/><path d="M256.5,297.22a5,5,0,0,1-3.42-8.64l240-225a5,5,0,0,1,6.84,7.3l-240,225A4.94,4.94,0,0,1,256.5,297.22Z"/><rect x="7.81" y="257.31" width="59.19" height="10" transform="translate(-174.51 103.26) rotate(-45)"/><rect x="33.26" y="263.85" width="77.68" height="10" transform="translate(-168.98 129.71) rotate(-45)"/><rect x="57.81" y="270.76" width="97.22" height="10" transform="translate(-163.81 156) rotate(-45)"/><rect x="71.71" y="282.08" width="129.25" height="10" transform="translate(-163.06 180.46) rotate(-45)"/><rect x="66.56" y="301.29" width="183.58" height="10" transform="translate(-170.19 201.66) rotate(-45)"/><rect x="-31.72" y="364.38" width="337.67" height="10" transform="translate(-221.02 205.12) rotate(-45)"/><rect x="27.78" y="426.99" width="177.08" height="10" transform="translate(-271.38 208.76) rotate(-45)"/><rect x="72.88" y="442.24" width="136" height="10" transform="translate(-274.97 230.58) rotate(-45)"/><rect x="119.39" y="452.82" width="104.14" height="10" transform="translate(-273.49 255.3) rotate(-45)"/><rect x="164.25" y="460.78" width="82.05" height="10" transform="translate(-269.22 281.54) rotate(-45)"/><rect x="208.31" y="469.83" width="57.04" height="10" transform="translate(-266.38 306.51) rotate(-45)"/></g><text x="0" y="527" fill="#000000" font-size="5px" font-weight="bold" font-family="'Helvetica Neue', Helvetica, Arial-Unicode, Arial, Sans-serif">Created by Jino</text><text x="0" y="532" fill="#000000" font-size="5px" font-weight="bold" font-family="'Helvetica Neue', Helvetica, Arial-Unicode, Arial, Sans-serif">from the Noun Project</text></svg>