<svg xmlns="http://www.w3.org/2000/svg" xmlns:xlink="http://www.w3.org/1999/xlink" version="1.1" x="0px" y="0px" viewBox="0 0 50 62.5" style="enable-background:new 0 0 50 50;" xml:space="preserve"><path d="M25.637207,12.7304688c-7.0302734,0-12.75,5.7197266-12.75,12.75s5.7197266,12.75,12.75,12.75s12.75-5.7197266,12.75-12.75  S32.6674805,12.7304688,25.637207,12.7304688z M25.637207,37.2304688c-6.4790039,0-11.75-5.2714844-11.75-11.75  s5.2709961-11.75,11.75-11.75s11.75,5.2714844,11.75,11.75S32.1162109,37.2304688,25.637207,37.2304688z M35.7290039,26.9277344  l-2.2529297-0.4404297c0.0463867-0.3466797,0.0693359-0.6933594,0.0693359-1.0341797  c0-0.3105469-0.0195313-0.6220703-0.0600586-0.9453125l2.2749023-0.4492188  c0.2680664-0.0527344,0.4443359-0.3105469,0.3950195-0.5800781c-0.2583008-1.4208984-0.8056641-2.7578125-1.6259766-3.9736328  c-0.0742188-0.1103516-0.1899414-0.1865234-0.3203125-0.2119141c-0.1293945-0.0234375-0.265625,0.0039063-0.3759766,0.078125  l-1.890625,1.2900391c-0.4389648-0.5849609-0.9501953-1.1025391-1.5268555-1.5439453l1.2319336-1.8955078  c0.0727539-0.1113281,0.0834961-0.2578125,0.0556641-0.3876953s-0.1206055-0.2539063-0.2324219-0.3261719  c-1.1728516-0.7548828-2.4604492-1.2626953-3.8823242-1.5166016c-0.2573242-0.0302734-0.4951172,0.1484375-0.543457,0.4033203  l-0.4106445,2.1523438c-0.6875-0.0917969-1.3662109-0.0986328-2.065918-0.0068359l-0.4189453-2.0917969  c-0.0263672-0.1308594-0.1220703-0.2431641-0.2338867-0.3164063c-0.1108398-0.0722656-0.2661133-0.0957031-0.3969727-0.0683594  c-1.3242188,0.2832031-2.5664063,0.8125-3.6918945,1.5742188c-0.2275391,0.1542969-0.2880859,0.4628906-0.1357422,0.6914063  l1.140625,1.7089844c-0.6103516,0.4492188-1.1469727,0.9765625-1.6035156,1.5722656l-1.6616211-1.109375  c-0.1113281-0.0732422-0.2480469-0.1015625-0.378418-0.0742188c-0.1308594,0.0273438-0.2456055,0.1054688-0.3183594,0.2177734  c-0.3813477,0.5849609-0.7055664,1.2099609-0.9628906,1.8574219c-0.2504883,0.6289063-0.440918,1.2861328-0.5664063,1.9550781  c-0.050293,0.2695313,0.1264648,0.5302734,0.3959961,0.5820313l1.9223633,0.3759766  c-0.0458984,0.3476563-0.0693359,0.6953125-0.0693359,1.0380859c0,0.3828125,0.0283203,0.7695313,0.0849609,1.1542969  l-1.9013672,0.375c-0.1308594,0.0253906-0.2460938,0.1025391-0.3198242,0.2138672s-0.1000977,0.2470703-0.0732422,0.3779297  c0.1347656,0.6513672,0.3330078,1.2929688,0.5893555,1.9091797c0.284668,0.6835938,0.644043,1.3417969,1.0688477,1.9550781  c0.15625,0.2265625,0.4667969,0.2832031,0.6928711,0.1289063l1.6293945-1.1123047  c0.4467773,0.5546875,0.9628906,1.0429688,1.5415039,1.4609375l-1.0888672,1.6748047  c-0.1499023,0.2314453-0.0849609,0.5400391,0.1455078,0.6904297c0.5830078,0.3818359,1.2021484,0.7050781,1.8388672,0.9599609  c0.5986328,0.2412109,1.2241211,0.4277344,1.859375,0.5546875c0.1303711,0.0283203,0.2666016-0.0009766,0.3769531-0.0751953  c0.1103516-0.0751953,0.1870117-0.1904297,0.2119141-0.3212891l0.3867188-2.0283203  c0.7231445,0.0898438,1.3974609,0.0761719,2.0839844-0.0244141l0.4165039,2.0800781  c0.0473633,0.2373047,0.2558594,0.4013672,0.4897461,0.4013672c0.0307617,0,0.0615234-0.0029297,0.0927734-0.0087891  c1.3852539-0.2607422,2.6850586-0.7880859,3.8647461-1.5673828c0.1108398-0.0732422,0.1879883-0.1875,0.2143555-0.3183594  c0.0263672-0.1298828-0.0004883-0.265625-0.0742188-0.3759766l-1.2241211-1.8349609  c0.5351563-0.4208984,1.0102539-0.9033203,1.4204102-1.4423828l1.875,1.2529297  c0.2290039,0.1513672,0.5361328,0.0917969,0.6899414-0.1328125c0.8071289-1.1767578,1.3598633-2.4833984,1.6420898-3.8837891  c0.0263672-0.1298828-0.0004883-0.265625-0.074707-0.3769531C35.9750977,27.0292969,35.8598633,26.953125,35.7290039,26.9277344z   M33.9257813,30.4199219l-1.8569336-1.2402344c-0.1103516-0.0732422-0.246582-0.1015625-0.3754883-0.0742188  c-0.1303711,0.0253906-0.2446289,0.1025391-0.3183594,0.2128906c-0.4907227,0.7353516-1.1108398,1.3662109-1.8442383,1.8740234  c-0.2241211,0.1552734-0.2827148,0.4619141-0.1313477,0.6884766l1.203125,1.8027344  c-0.8100586,0.4775391-1.6772461,0.8291016-2.5888672,1.0498047l-0.4130859-2.0625  c-0.0263672-0.1308594-0.1035156-0.2451172-0.2148438-0.3183594c-0.0825195-0.0546875-0.1782227-0.0830078-0.2753906-0.0830078  c-0.0341797,0-0.0688477,0.0039063-0.1025391,0.0107422c-0.8706055,0.1816406-1.7128906,0.2070313-2.6879883,0.0322266  c-0.2685547-0.0458984-0.527832,0.1289063-0.5795898,0.3984375l-0.3798828,1.9921875  c-0.4047852-0.1035156-0.8032227-0.234375-1.1899414-0.3896484c-0.4243164-0.1699219-0.8398438-0.3730469-1.2402344-0.6064453  l1.078125-1.6582031c0.0727539-0.1123047,0.0976563-0.2490234,0.0688477-0.3798828  c-0.0283203-0.1308594-0.1083984-0.2441406-0.2216797-0.3154297c-0.7797852-0.4921875-1.4448242-1.1210938-1.9760742-1.8681641  c-0.1582031-0.2236328-0.465332-0.2783203-0.6894531-0.1240234l-1.6015625,1.0927734  c-0.2680664-0.4335938-0.5014648-0.8876953-0.6962891-1.3554688c-0.1669922-0.4013672-0.3066406-0.8154297-0.4174805-1.2353516  l1.8745117-0.3701172c0.1313477-0.0253906,0.246582-0.1025391,0.3203125-0.2148438  c0.0737305-0.1113281,0.0996094-0.2470703,0.0722656-0.3779297c-0.1010742-0.4804688-0.1523438-0.9677734-0.1523438-1.4472656  c0-0.4414063,0.0444336-0.8916016,0.1318359-1.3398438c0.0527344-0.2705078-0.1240234-0.5332031-0.3950195-0.5859375  l-1.8989258-0.3720703c0.105957-0.4375,0.2426758-0.8671875,0.4082031-1.2841797  c0.1713867-0.4287109,0.3745117-0.8476563,0.6074219-1.25l1.6318359,1.0898438  c0.2299805,0.1523438,0.5390625,0.0908203,0.6933594-0.1376953c0.5302734-0.7910156,1.2109375-1.4589844,2.0239258-1.9833984  c0.1123047-0.0722656,0.190918-0.1875,0.2182617-0.3183594c0.0268555-0.1308594,0.0004883-0.2675781-0.0737305-0.3789063  l-1.1308594-1.6943359c0.769043-0.4638672,1.5932617-0.8144531,2.4648438-1.0458984l0.4116211,2.0556641  c0.0537109,0.2685547,0.3129883,0.4414063,0.5834961,0.3925781c0.9111328-0.1728516,1.7871094-0.1640625,2.671875,0.0097656  c0.1308594,0.0292969,0.2661133-0.0009766,0.3764648-0.0761719c0.1103516-0.0742188,0.1865234-0.1894531,0.2114258-0.3203125  l0.4072266-2.1347656c0.9111328,0.2119141,1.7807617,0.5556641,2.597168,1.0273438l-1.2124023,1.8652344  c-0.1489258,0.2285156-0.0869141,0.5351563,0.1396484,0.6875c0.7714844,0.5195313,1.425293,1.1816406,1.9423828,1.9667969  c0.0732422,0.1123047,0.1889648,0.1904297,0.3203125,0.2158203c0.1323242,0.0273438,0.2685547-0.0019531,0.3789063-0.0771484  l1.8720703-1.2773438c0.5078125,0.8427734,0.8764648,1.7441406,1.1000977,2.6884766l-2.2490234,0.4443359  c-0.2680664,0.0527344-0.4438477,0.3105469-0.3955078,0.5791016c0.0800781,0.4414063,0.1191406,0.8505859,0.1191406,1.2539063  c0,0.4384766-0.0444336,0.8886719-0.1313477,1.3359375c-0.0527344,0.2714844,0.1240234,0.5332031,0.3950195,0.5859375  l2.2216797,0.4345703C34.7944336,28.7333984,34.4238281,29.6074219,33.9257813,30.4199219z M25.5932617,19.5429688  c-3.2910156,0-5.96875,2.6777344-5.96875,5.96875s2.6777344,5.96875,5.96875,5.96875  c3.2915039,0,5.9692383-2.6777344,5.9692383-5.96875S28.8847656,19.5429688,25.5932617,19.5429688z M30.5796509,23.2765503  l-3.1254272,1.2325439c-0.1929321-0.3591919-0.4855957-0.6520386-0.8446655-0.8450928l1.3851318-3.0581055  C29.1372681,21.1674805,30.0557861,22.112915,30.5796509,23.2765503z M25.637207,26.5517578  c-0.590332,0-1.0708008-0.4804688-1.0708008-1.0712891c0-0.5898438,0.4804688-1.0703125,1.0708008-1.0703125  s1.0703125,0.4804688,1.0703125,1.0703125C26.7075195,26.0712891,26.2275391,26.5517578,25.637207,26.5517578z   M27.536377,20.4060669l-1.3924561,3.0742188c-0.1630249-0.0413818-0.3309326-0.0701294-0.5067139-0.0701294  c-0.2007446,0-0.3909912,0.0377197-0.574707,0.0912476l-1.1923218-3.1760254  c0.5424194-0.1807251,1.1206665-0.2824097,1.7230835-0.2824097C26.2782593,20.0429688,26.9315796,20.1751099,27.536377,20.4060669z   M23.4034424,20.5038452l1.1989746,3.1939087c-0.3115234,0.1815186-0.5687866,0.4390869-0.7498169,0.7508545l-3.1425171-1.3851929  C21.2819214,21.9275513,22.2346802,21.0169067,23.4034424,20.5038452z M20.5056152,23.5194702l3.1512451,1.3889771  c-0.0530396,0.1828613-0.0904541,0.3722534-0.0904541,0.5720215c0,0.2006836,0.0376587,0.3908691,0.0910645,0.5744629  l-3.2129517,1.2824097c-0.2034302-0.5718994-0.3200073-1.1846924-0.3200073-1.8256226  C20.1245117,24.8082886,20.2626343,24.1376953,20.5056152,23.5194702z M20.6333008,27.8009033l3.2205811-1.2855225  c0.1726074,0.2965088,0.4129028,0.5454102,0.7047729,0.7249756l-1.3670654,3.177063  C22.0671387,29.864624,21.1610107,28.9395752,20.6333008,27.8009033z M23.6495361,30.6171265l1.3646851-3.1715698  c0.197876,0.0629883,0.40448,0.1062012,0.6229858,0.1062012c0.1787109,0,0.3492432-0.0298462,0.5147705-0.0726318  l1.2827759,3.1755371c-0.5764771,0.2070923-1.1946411,0.3258057-1.8414917,0.3258057  C24.90802,30.9804688,24.2545166,30.8482666,23.6495361,30.6171265z M27.897522,30.4644165l-1.2807617-3.1704712  c0.336792-0.1829224,0.6149902-0.453125,0.8065186-0.7845459l3.1584473,1.2332153  C30.043396,28.9411011,29.0866089,29.9088745,27.897522,30.4644165z M30.7641602,27.2780762l-3.1460571-1.2283936  c0.0524292-0.1820679,0.0894165-0.3704834,0.0894165-0.5692139c0-0.1756592-0.0286255-0.3434448-0.0700073-0.5064087  l3.1252441-1.2324829c0.19104,0.5560913,0.2997437,1.1500244,0.2997437,1.7701416  C31.0625,26.1303711,30.9543457,26.7230835,30.7641602,27.2780762z"/><text x="0" y="65" fill="#000000" font-size="5px" font-weight="bold" font-family="'Helvetica Neue', Helvetica, Arial-Unicode, Arial, Sans-serif">Created by ATOM</text><text x="0" y="70" fill="#000000" font-size="5px" font-weight="bold" font-family="'Helvetica Neue', Helvetica, Arial-Unicode, Arial, Sans-serif">from the Noun Project</text></svg>