<svg xmlns="http://www.w3.org/2000/svg" data-name="Calque 1" x="0px" y="0px" viewBox="83.3 52.98 341.54 394.02"><title>concrete_icons</title><path d="M254.09,447a3.48,3.48,0,0,1-1.82-.51L85,344.22a3.49,3.49,0,0,1-1.67-3l.25-18.84a3.5,3.5,0,0,1,3.5-3.45h0a3.5,3.5,0,0,1,3.45,3.54l-.22,16.85L254.09,439.4,417.82,339.29l-.22-16.85a3.5,3.5,0,0,1,3.45-3.54h0a3.5,3.5,0,0,1,3.5,3.45l.25,18.84a3.49,3.49,0,0,1-1.67,3L255.91,446.49A3.48,3.48,0,0,1,254.09,447Z"/><path d="M254.09,411.41a3.5,3.5,0,0,1-1.82-.51L85,308.64a3.5,3.5,0,0,1,0-6l40.19-24.18a3.5,3.5,0,1,1,3.61,6L93.58,305.68l160.51,98.13,160.66-98.22L381.6,284.43a3.5,3.5,0,1,1,3.77-5.9l37.86,24.18a3.5,3.5,0,0,1-.06,5.93L255.91,410.89A3.5,3.5,0,0,1,254.09,411.41Z"/><path d="M118.23,218.62a3.5,3.5,0,0,1-2.47-6L274.38,54A3.5,3.5,0,0,1,279.33,59L120.7,217.6A3.49,3.49,0,0,1,118.23,218.62Z"/><path d="M174.78,276.64a3.5,3.5,0,0,1-2.47-6L330.93,112a3.5,3.5,0,0,1,4.95,4.95L177.25,275.61A3.49,3.49,0,0,1,174.78,276.64Z"/><path d="M227.65,329.52a3.5,3.5,0,0,1-2.47-6L383.81,164.92a3.5,3.5,0,1,1,4.95,4.95L230.12,328.49A3.49,3.49,0,0,1,227.65,329.52Z"/><path d="M334.87,276.64a3.49,3.49,0,0,1-2.47-1L173.77,117a3.5,3.5,0,0,1,4.95-4.95L337.34,270.67a3.5,3.5,0,0,1-2.47,6Z"/><path d="M390.69,220.83a3.49,3.49,0,0,1-2.47-1L229.58,61.17a3.5,3.5,0,1,1,4.95-4.95L393.16,214.86a3.5,3.5,0,0,1-2.47,6Z"/><path d="M276.12,332.45a3.49,3.49,0,0,1-2.47-1L115,172.8a3.5,3.5,0,1,1,4.95-4.95L278.59,326.48a3.5,3.5,0,0,1-2.47,6Z"/></svg>